<?xml version="1.0" encoding="UTF-8" standalone="no"?>
<!DOCTYPE svg PUBLIC "-//W3C//DTD SVG 1.1//EN" "http://www.w3.org/Graphics/SVG/1.1/DTD/svg11.dtd">
<svg width="100%" height="100%" viewBox="0 0 576 512" version="1.1" xmlns="http://www.w3.org/2000/svg" xmlns:xlink="http://www.w3.org/1999/xlink" xml:space="preserve" xmlns:serif="http://www.serif.com/" style="fill-rule:evenodd;clip-rule:evenodd;stroke-linejoin:round;stroke-miterlimit:2;">
    <rect x="-24.254" y="-13.299" width="640.997" height="625.039" style="fill:rgb(67,99,50);"/>
    <path d="M512,64L64,64C28.65,64 0,92.65 0,128L0,384C0,419.35 28.65,448 64,448L512,448C547.35,448 576,419.35 576,384L576,128C576,92.65 547.3,64 512,64ZM528,384C528,392.822 520.822,400 512,400L64,400C55.178,400 48,392.822 48,384L48,128C48,119.178 55.178,112 64,112L512,112C520.822,112 528,119.178 528,128L528,384ZM140,152L116,152C109.344,152 104,157.344 104,164L104,188C104,194.656 109.344,200 116,200L140,200C146.656,200 152,194.656 152,188L152,164C152,157.3 146.7,152 140,152ZM196,200L220,200C226.656,200 232,194.656 232,188L232,164C232,157.344 226.656,152 220,152L196,152C189.344,152 184,157.344 184,164L184,188C184,194.7 189.3,200 196,200ZM276,200L300,200C306.656,200 312,194.656 312,188L312,164C312,157.344 306.656,152 300,152L276,152C269.344,152 264,157.344 264,164L264,188C264,194.7 269.3,200 276,200ZM356,200L380,200C386.656,200 392,194.656 392,188L392,164C392,157.344 386.656,152 380,152L356,152C349.344,152 344,157.344 344,164L344,188C344,194.7 349.3,200 356,200ZM460,152L436,152C429.344,152 424,157.344 424,164L424,188C424,194.656 429.344,200 436,200L460,200C466.656,200 472,194.656 472,188L472,164C472,157.3 466.7,152 460,152ZM140,232L116,232C109.344,232 104,237.344 104,244L104,268C104,274.656 109.344,280 116,280L140,280C146.656,280 152,274.656 152,268L152,244C152,237.3 146.7,232 140,232ZM196,280L220,280C226.656,280 232,274.656 232,268L232,244C232,237.344 226.656,232 220,232L196,232C189.344,232 184,237.344 184,244L184,268C184,274.7 189.3,280 196,280ZM276,280L300,280C306.656,280 312,274.656 312,268L312,244C312,237.344 306.656,232 300,232L276,232C269.344,232 264,237.344 264,244L264,268C264,274.7 269.3,280 276,280ZM356,280L380,280C386.656,280 392,274.656 392,268L392,244C392,237.344 386.656,232 380,232L356,232C349.344,232 344,237.344 344,244L344,268C344,274.7 349.3,280 356,280ZM460,232L436,232C429.344,232 424,237.344 424,244L424,268C424,274.656 429.344,280 436,280L460,280C466.656,280 472,274.656 472,268L472,244C472,237.3 466.7,232 460,232ZM400,320L176,320C167.1,320 160,327.1 160,336L160,352C160,360.875 167.125,368 176,368L400,368C408.875,368 416,360.875 416,352L416,336C416,327.1 408.9,320 400,320Z" style="fill:rgb(29,29,29);fill-rule:nonzero;"/>
</svg>
